<svg width="1215" height="1200" viewBox="0 0 1215 1200" fill="none" xmlns="http://www.w3.org/2000/svg">
<g filter="url(#filter0_d_3_22)">
<path d="M20.7846 636C7.92304 613.723 7.92305 586.277 20.7846 564L279.215 116.385C292.077 94.1079 315.846 80.3848 341.569 80.3848H858.431C884.154 80.3848 907.923 94.1079 920.785 116.385L1179.22 564C1192.08 586.277 1192.08 613.723 1179.22 636L920.785 1083.62C907.923 1105.89 884.154 1119.62 858.431 1119.62H341.569C315.846 1119.62 292.077 1105.89 279.215 1083.62L20.7846 636Z" fill="#1C3240"/>
<path d="M36.3731 627C26.7269 610.292 26.7269 589.708 36.3731 573L294.804 125.385C304.45 108.677 322.277 98.3848 341.569 98.3848H858.431C877.723 98.3848 895.55 108.677 905.196 125.385L1163.63 573C1173.27 589.708 1173.27 610.292 1163.63 627L905.196 1074.62C895.55 1091.32 877.723 1101.62 858.431 1101.62H341.569C322.277 1101.62 304.45 1091.32 294.804 1074.62L36.3731 627Z" stroke="white" stroke-width="36"/>
</g>
<path d="M728 408C711.026 408 694.747 414.743 682.745 426.745C670.743 438.747 664 455.026 664 472V728C664 744.974 670.743 761.253 682.745 773.255C694.747 785.257 711.026 792 728 792C744.974 792 761.253 785.257 773.255 773.255C785.257 761.253 792 744.974 792 728C792 711.026 785.257 694.747 773.255 682.745C761.253 670.743 744.974 664 728 664H472C455.026 664 438.747 670.743 426.745 682.745C414.743 694.747 408 711.026 408 728C408 744.974 414.743 761.253 426.745 773.255C438.747 785.257 455.026 792 472 792C488.974 792 505.253 785.257 517.255 773.255C529.257 761.253 536 744.974 536 728V472C536 455.026 529.257 438.747 517.255 426.745C505.253 414.743 488.974 408 472 408C455.026 408 438.747 414.743 426.745 426.745C414.743 438.747 408 455.026 408 472C408 488.974 414.743 505.253 426.745 517.255C438.747 529.257 455.026 536 472 536H728C744.974 536 761.253 529.257 773.255 517.255C785.257 505.253 792 488.974 792 472C792 455.026 785.257 438.747 773.255 426.745C761.253 414.743 744.974 408 728 408Z" stroke="#03A60E" stroke-width="48" stroke-linecap="round" stroke-linejoin="round"/>
<defs>
<filter id="filter0_d_3_22" x="5.13843" y="74.3848" width="1209.72" height="1071.23" filterUnits="userSpaceOnUse" color-interpolation-filters="sRGB">
<feFlood flood-opacity="0" result="BackgroundImageFix"/>
<feColorMatrix in="SourceAlpha" type="matrix" values="0 0 0 0 0 0 0 0 0 0 0 0 0 0 0 0 0 0 127 0" result="hardAlpha"/>
<feOffset dx="10" dy="10"/>
<feGaussianBlur stdDeviation="8"/>
<feComposite in2="hardAlpha" operator="out"/>
<feColorMatrix type="matrix" values="0 0 0 0 0 0 0 0 0 0 0 0 0 0 0 0 0 0 0.25 0"/>
<feBlend mode="normal" in2="BackgroundImageFix" result="effect1_dropShadow_3_22"/>
<feBlend mode="normal" in="SourceGraphic" in2="effect1_dropShadow_3_22" result="shape"/>
</filter>
</defs>
</svg>
